<?xml version="1.0" standalone="no"?>
<!DOCTYPE svg PUBLIC "-//W3C//DTD SVG 20010904//EN"
 "http://www.w3.org/TR/2001/REC-SVG-20010904/DTD/svg10.dtd">
<svg version="1.0" xmlns="http://www.w3.org/2000/svg"
 width="309.000000pt" height="309.000000pt" viewBox="0 0 309.000000 309.000000"
 preserveAspectRatio="xMidYMid meet">
<metadata>
Created by potrace 1.14, written by Peter Selinger 2001-2017
</metadata>
<g transform="translate(0.000000,309.000000) scale(0.100000,-0.100000)"
fill="#000000" stroke="none">
<path d="M2480 2289 c0 -6 18 -32 40 -57 139 -157 226 -563 175 -807 -34 -161
-136 -311 -254 -374 -104 -55 -195 -54 -256 3 l-35 33 73 74 c131 135 189 261
189 414 0 104 -22 175 -65 211 -29 24 -36 26 -95 21 -156 -15 -255 -127 -298
-337 -17 -85 -14 -234 6 -323 7 -34 6 -39 -17 -54 -74 -49 -155 8 -194 137
-32 105 -23 225 26 380 62 193 131 314 252 441 47 49 73 84 73 99 0 22 -3 23
-58 18 -136 -13 -258 -119 -347 -302 -134 -275 -164 -585 -71 -727 79 -119
203 -176 326 -150 50 11 54 10 68 -11 99 -144 311 -178 496 -80 276 145 434
577 342 936 -51 200 -175 390 -290 445 -46 23 -86 27 -86 10z m-224 -664 c8
-56 -10 -161 -41 -238 -28 -67 -82 -157 -96 -157 -14 0 -10 180 6 274 17 99
36 150 68 184 l22 23 17 -21 c9 -11 20 -41 24 -65z"/>
<path d="M700 2172 c-39 -40 -51 -114 -22 -145 l20 -22 -95 -145 c-338 -519
-512 -874 -478 -978 7 -26 117 -82 157 -82 74 0 98 60 54 134 -31 53 -32 68
-7 122 21 47 34 53 166 78 315 62 750 111 777 88 8 -6 49 -79 92 -162 61 -119
82 -151 102 -156 56 -14 73 15 56 95 -12 54 -65 174 -98 219 -16 22 -16 22 23
22 21 0 44 5 51 12 19 19 14 76 -9 99 -19 19 -28 20 -93 15 l-71 -7 -136 203
c-76 115 -167 266 -208 348 -41 80 -89 171 -108 203 -54 89 -120 112 -173 59z
m159 -345 c74 -99 332 -480 328 -484 -1 -1 -81 -9 -177 -18 -96 -8 -264 -25
-373 -36 -109 -11 -200 -19 -203 -16 -7 7 34 93 129 267 155 286 209 380 218
380 5 0 40 -42 78 -93z"/>
</g>
</svg>
