<svg version="1.0" xmlns="http://www.w3.org/2000/svg" width="412" height="412" viewBox="0 0 309 309"><path d="M248 80.1c0 .6 1.8 3.2 4 5.7 13.9 15.7 22.6 56.3 17.5 80.7-3.4 16.1-13.6 31.1-25.4 37.4-10.4 5.5-19.5 5.4-25.6-.3l-3.5-3.3 7.3-7.4c13.1-13.5 18.9-26.1 18.9-41.4 0-10.4-2.2-17.5-6.5-21.1-2.9-2.4-3.6-2.6-9.5-2.1-15.6 1.5-25.5 12.7-29.8 33.7-1.7 8.5-1.4 23.4.6 32.3.7 3.4.6 3.9-1.7 5.4-7.4 4.9-15.5-.8-19.4-13.7-3.2-10.5-2.3-22.5 2.6-38 6.2-19.3 13.1-31.4 25.2-44.1 4.7-4.9 7.3-8.4 7.3-9.9 0-2.2-.3-2.3-5.8-1.8-13.6 1.3-25.8 11.9-34.7 30.2-13.4 27.5-16.4 58.5-7.1 72.7 7.9 11.9 20.3 17.6 32.6 15 5-1.1 5.4-1 6.8 1.1 9.9 14.4 31.1 17.8 49.6 8 27.6-14.5 43.4-57.7 34.2-93.6-5.1-20-17.5-39-29-44.5-4.6-2.3-8.6-2.7-8.6-1zm-22.4 66.4c.8 5.6-1 16.1-4.1 23.8-2.8 6.7-8.2 15.7-9.6 15.7-1.4 0-1-18 .6-27.4 1.7-9.9 3.6-15 6.8-18.4l2.2-2.3 1.7 2.1c.9 1.1 2 4.1 2.4 6.5zM70 91.8c-3.9 4-5.1 11.4-2.2 14.5l2 2.2-9.5 14.5c-33.8 51.9-51.2 87.4-47.8 97.8.7 2.6 11.7 8.2 15.7 8.2 7.4 0 9.8-6 5.4-13.4-3.1-5.3-3.2-6.8-.7-12.2 2.1-4.7 3.4-5.3 16.6-7.8 31.5-6.2 75-11.1 77.7-8.8.8.6 4.9 7.9 9.2 16.2 6.1 11.9 8.2 15.1 10.2 15.6 5.6 1.4 7.3-1.5 5.6-9.5-1.2-5.4-6.5-17.4-9.8-21.9-1.6-2.2-1.6-2.2 2.3-2.2 2.1 0 4.4-.5 5.1-1.2 1.9-1.9 1.4-7.6-.9-9.9-1.9-1.9-2.8-2-9.3-1.5l-7.1.7-13.6-20.3c-7.6-11.5-16.7-26.6-20.8-34.8-4.1-8-8.9-17.1-10.8-20.3-5.4-8.9-12-11.2-17.3-5.9zm15.9 34.5c7.4 9.9 33.2 48 32.8 48.4-.1.1-8.1.9-17.7 1.8-9.6.8-26.4 2.5-37.3 3.6-10.9 1.1-20 1.9-20.3 1.6-.7-.7 3.4-9.3 12.9-26.7 15.5-28.6 20.9-38 21.8-38 .5 0 4 4.2 7.8 9.3z"/></svg>